<?xml version="1.0" encoding="utf-8"?>
<!-- Generator: Adobe Illustrator 22.0.1, SVG Export Plug-In . SVG Version: 6.00 Build 0)  -->
<svg version="1.1" id="Capa_1" xmlns="http://www.w3.org/2000/svg" xmlns:xlink="http://www.w3.org/1999/xlink" x="0px" y="0px"
	 viewBox="0 0 30 30" style="enable-background:new 0 0 30 30;" xml:space="preserve">
<style type="text/css">
	.st0{fill:none;stroke:#FFFFFF;stroke-width:0.9189;stroke-miterlimit:10;}
	.st1{fill:#FFFFFF;}
</style>
<g>
	<g>
		<path class="st0" d="M17.8,10.3c3.1,2.1,5.2,7.2,5.2,10.1c0,3.7-3.6,6.8-8,6.8s-8-3-8-6.8c0-2.9,2.2-8,5.2-10.1"/>
		<path class="st0" d="M18,10.3H12c-0.6,0-1.2-0.5-1.2-1.2v0C10.9,8.5,11.4,8,12,8H18c0.6,0,1.2,0.5,1.2,1.2v0
			C19.1,9.8,18.6,10.3,18,10.3z"/>
		<g>
			<path class="st0" d="M13,8l-1.5-3.1h1.9c0,0,0-2.1,1.6-2.1"/>
			<path class="st0" d="M17,8l1.5-3.1h-1.9c0,0,0-2.1-1.6-2.1"/>
		</g>
		<g>
			<path class="st1" d="M16.4,20.2c0-0.3-0.1-0.6-0.3-0.8c-0.2-0.2-0.6-0.4-1.1-0.6c-0.7-0.2-1.2-0.5-1.5-0.8S13,17.3,13,16.8
				c0-0.5,0.2-1,0.5-1.3c0.3-0.3,0.7-0.5,1.3-0.6v-1.1h0.7v1.1c0.5,0.1,1,0.3,1.3,0.7c0.3,0.4,0.5,0.9,0.5,1.6h-0.9
				c0-0.5-0.1-0.8-0.3-1.1s-0.5-0.4-0.9-0.4c-0.4,0-0.7,0.1-0.9,0.3c-0.2,0.2-0.3,0.5-0.3,0.8c0,0.3,0.1,0.6,0.3,0.8
				c0.2,0.2,0.6,0.4,1.1,0.5c0.5,0.2,0.9,0.3,1.2,0.5c0.3,0.2,0.5,0.4,0.6,0.7c0.1,0.3,0.2,0.6,0.2,0.9c0,0.5-0.2,1-0.5,1.3
				s-0.8,0.5-1.4,0.6V23h-0.7v-0.9c-0.6-0.1-1.1-0.3-1.4-0.6c-0.3-0.4-0.5-0.9-0.5-1.5h0.9c0,0.5,0.1,0.8,0.4,1
				c0.2,0.2,0.6,0.4,1,0.4c0.4,0,0.8-0.1,1-0.3C16.3,20.8,16.4,20.6,16.4,20.2z"/>
		</g>
	</g>
</g>
</svg>
