<?xml version="1.0" encoding="utf-8"?>
<!-- Generator: Adobe Illustrator 22.0.1, SVG Export Plug-In . SVG Version: 6.00 Build 0)  -->
<svg version="1.1" xmlns="http://www.w3.org/2000/svg" xmlns:xlink="http://www.w3.org/1999/xlink" x="0px" y="0px"
	 viewBox="0 0 30 30" style="enable-background:new 0 0 30 30;" xml:space="preserve">
<style type="text/css">
	.st0{fill:none;stroke:#FFFFFF;stroke-miterlimit:10;}
</style>
<g id="Capa_2">
</g>
<g id="Capa_1">
	<g>
		<g>
			<path class="st0" d="M8.2,26.4L8,26.3l0.1-0.8l0.1-0.1c0.1,0,0.3,0,0.7,0c0.9,0,1.4-0.1,1.6-0.2c0.2-0.1,0.3-0.3,0.5-0.7
				c0.1-0.3,0.4-1.8,0.9-4.2l1.5-8.6c0.6-3.2,0.8-5.2,0.8-5.9c0-0.2,0-0.3-0.1-0.5C14.1,5.1,14,5,13.9,4.9c-0.2-0.1-0.5-0.1-1-0.1
				l-1.5-0.1l-0.1-0.1l0.1-0.9l0.1-0.1c1.5,0.1,3.2,0.1,5.1,0.1c0.8,0,2.5,0,5.2-0.1L22,3.7l-0.1,0.9l-0.1,0.1
				c-1.2,0-1.9,0.1-2.1,0.1c-0.2,0.1-0.3,0.1-0.4,0.2c-0.1,0.1-0.2,0.2-0.3,0.5c-0.1,0.3-0.4,1.4-0.7,3.1l-2.1,12.2
				c-0.3,1.8-0.4,3-0.4,3.4c0,0.3,0.1,0.6,0.3,0.7c0.2,0.1,0.6,0.2,1,0.2l1.7,0.1l0.1,0.1l-0.1,0.8l-0.1,0.1c-1.2-0.1-3-0.1-5.3-0.1
				C11.5,26.3,9.8,26.4,8.2,26.4z"/>
		</g>
	</g>
</g>
</svg>
