<?xml version="1.0" encoding="utf-8"?>
<!-- Generator: Adobe Illustrator 22.0.1, SVG Export Plug-In . SVG Version: 6.00 Build 0)  -->
<svg version="1.1" id="Capa_1" xmlns="http://www.w3.org/2000/svg" xmlns:xlink="http://www.w3.org/1999/xlink" x="0px" y="0px"
	 viewBox="0 0 25 25" style="enable-background:new 0 0 25 25;" xml:space="preserve">
<style type="text/css">
	.st0{fill:none;stroke:#325BA9;stroke-width:0.9189;stroke-miterlimit:10;}
	.st1{fill:none;stroke:#325BA9;stroke-width:0.9189;stroke-miterlimit:10;stroke-dasharray:2.0884,1.0442;}
</style>
<g>
	<g>
		<g>
			<path class="st0" d="M12.5,22.4c0.3,0,0.7,0,1-0.1"/>
			<path class="st1" d="M14.5,22.2c4.2-0.9,7.4-4.7,7.4-9.2c0-1.9-0.6-3.8-1.6-5.3"/>
			<path class="st0" d="M20,7.4c-0.2-0.3-0.4-0.5-0.6-0.8"/>
		</g>
	</g>
	<path class="st0" d="M17.5,5.1c-1.4-0.9-3.1-1.4-5-1.4c-5.2,0-9.4,4.2-9.4,9.4s4.2,9.4,9.4,9.4"/>
	<polyline class="st0" points="12,6.4 12.4,13.2 16.8,17 	"/>
	<polyline class="st0" points="17.3,2.6 17.6,5.2 15,5.5 	"/>
</g>
</svg>
