<svg xmlns="http://www.w3.org/2000/svg" viewBox="0 0 46.97 46.63"><defs><style>.cls-1{fill:#fd6925;}.cls-2{fill:#fff;}</style></defs><title>Recurso 9</title><g id="Capa_2" data-name="Capa 2"><g id="Capa_3" data-name="Capa 3"><path class="cls-1" d="M30.46,7a.52.52,0,0,1-.21,0L25.79,5.49a5.14,5.14,0,0,0-.62,2.44,5.3,5.3,0,1,0,10-2.44L30.67,6.93A.52.52,0,0,1,30.46,7Z"/><polygon class="cls-1" points="26.58 4.35 26.58 4.61 30.46 5.87 34.34 4.61 34.34 4.35 34.34 2.3 36.17 2.3 36.17 1.59 24.69 1.59 24.69 2.3 26.58 2.3 26.58 4.35"/><path class="cls-1" d="M33.21,22.86a6.28,6.28,0,0,1,4.3-.51V16A1.48,1.48,0,0,0,36,14.5H24.83A1.48,1.48,0,0,0,23.35,16V27.84l.07,0Z"/><path class="cls-1" d="M14,5.37a.76.76,0,0,1-.21,0L9.37,3.89a5.3,5.3,0,1,0,9.35,0L14.25,5.34A.71.71,0,0,1,14,5.37Z"/><polygon class="cls-1" points="10.16 2.75 10.16 3.02 14.04 4.27 17.93 3.02 17.93 2.76 17.93 0.7 19.75 0.7 19.75 0 8.28 0 8.28 0.7 10.16 0.7 10.16 2.75"/><path class="cls-1" d="M12.48,22.58l8.62,4.13V14.39a1.48,1.48,0,0,0-1.48-1.48H8.41a1.48,1.48,0,0,0-1.48,1.48v7.87L9.11,22A6.2,6.2,0,0,1,12.48,22.58Z"/><path class="cls-2" d="M23.42,27.88l-.07,0v.07Z"/><path class="cls-1" d="M24.64,29.5a5.17,5.17,0,0,1,1.16,2.83L37.92,24.6a4.27,4.27,0,0,0-3.8,0Z"/><path class="cls-1" d="M39.56,25.39l-14,8.92h0a5.05,5.05,0,0,1-.34.8,5.71,5.71,0,0,1-6.56,2.68,4.76,4.76,0,0,1-.91-.35l-7.93-3.8V32s0,0,0,0l7.91,3.8h0l.69.33a4.47,4.47,0,0,0,1.79.4,4,4,0,0,0,3.55-2.06,3.5,3.5,0,0,0,.36-1.06,3.66,3.66,0,0,0-.95-3.15,4,4,0,0,0-1.16-.85l-10.44-5a4.12,4.12,0,0,0-1.8-.4l-.47,0L.49,25c-.17,0-.33.07-.49.1V37.93a1.52,1.52,0,0,0,1.12,1.42l19,7a4.84,4.84,0,0,0,1.72.31,5.05,5.05,0,0,0,2.67-.77L44.72,33a4.51,4.51,0,0,0,1.54-6.28A4.94,4.94,0,0,0,39.56,25.39Z"/></g></g></svg>